<svg width="211" height="200" viewBox="0 0 211 200" fill="none" xmlns="http://www.w3.org/2000/svg">
<path d="M208 100C208 153.422 162.263 197 105.5 197C48.7374 197 3 153.422 3 100C3 46.5777 48.7374 3 105.5 3C162.263 3 208 46.5777 208 100Z" fill="white" stroke="#1A5899" stroke-width="6"/>
<g clip-path="url(#clip0_422_778)">
<path d="M227.484 -17.5229H-15.5303V226.006H227.484V-17.5229Z" fill="white"/>
<path d="M227.484 -17.5229H-15.5303V226.006H227.484V-17.5229Z" fill="white"/>
<path d="M227.484 -17.5229H-15.5303V226.006H227.484V-17.5229Z" fill="white"/>
<path d="M227.484 -17.5229H-15.5303V226.006H227.484V-17.5229Z" fill="white"/>
<path d="M83.6583 67.8009H71.7544C70.9317 67.8009 70.2651 68.4668 70.2651 69.2912V90.1688C70.2651 90.9932 70.9317 91.6591 71.7544 91.6591H83.6583C84.4789 91.6591 85.1455 90.9932 85.1455 90.1688V69.2912C85.1455 68.4668 84.4789 67.8009 83.6583 67.8009Z" fill="#1A5899"/>
<path d="M101.515 61.8353H89.6091C88.7885 61.8353 88.1219 62.5012 88.1219 63.3278V90.1688C88.1219 90.9932 88.7885 91.6591 89.6091 91.6591H101.515C102.336 91.6591 103.002 90.9932 103.002 90.1688V63.3278C103.002 62.5012 102.336 61.8353 101.515 61.8353Z" fill="#1A5899"/>
<path d="M119.37 52.8892H107.466C106.643 52.8892 105.979 53.5572 105.979 54.3795V90.1689C105.979 90.9934 106.643 91.6593 107.466 91.6593H119.37C120.193 91.6593 120.859 90.9934 120.859 90.1689V54.3795C120.859 53.5572 120.193 52.8892 119.37 52.8892Z" fill="#1A5899"/>
<path d="M137.227 40.96H125.323C124.5 40.96 123.834 41.628 123.834 42.4503V90.1689C123.834 90.9933 124.5 91.6592 125.323 91.6592H137.227C138.05 91.6592 138.714 90.9933 138.714 90.1689V42.4503C138.714 41.628 138.05 40.96 137.227 40.96Z" fill="#1A5899"/>
<path d="M71.7544 55.8719C95.8069 55.8719 116.607 39.5161 126.407 28.6292V33.504C126.407 34.3263 127.072 34.9944 127.894 34.9944C128.719 34.9944 129.384 34.3263 129.384 33.504V24.5556C129.384 24.526 129.367 24.5006 129.365 24.471C129.361 24.3674 129.333 24.2702 129.304 24.1709C129.28 24.0799 129.261 23.9912 129.221 23.9087C129.183 23.8284 129.126 23.7607 129.072 23.6889C129.008 23.6022 128.947 23.5197 128.869 23.45C128.846 23.4288 128.835 23.4014 128.812 23.3845C128.764 23.3464 128.702 23.3337 128.65 23.302C128.559 23.2492 128.475 23.1984 128.373 23.1646C128.274 23.1308 128.179 23.116 128.078 23.1033C128.017 23.0948 127.96 23.0652 127.894 23.0652H119.37C118.547 23.0652 117.883 23.7333 117.883 24.5556C117.883 25.38 118.547 26.0481 119.37 26.0481H124.713C115.537 36.5122 95.231 52.8891 71.7544 52.8891C70.9317 52.8891 70.2651 53.5571 70.2651 54.3794C70.2651 55.2039 70.9317 55.8719 71.7544 55.8719Z" fill="#1A5899"/>
<path d="M62.4557 67.078H146.291V145.007H62.4557V67.078Z" fill="white"/>
<path d="M69.3137 142.629C69.3137 143.515 70.0309 144.233 70.9148 144.233H141.298C142.18 144.233 142.897 143.515 142.897 142.629V99.3477L139.697 100.952V141.027H72.5138V100.952L69.3137 99.3477V142.629Z" fill="#1A5899"/>
<path d="M114.105 113.775C114.105 112.89 114.82 112.173 115.704 112.173H131.7C132.584 112.173 133.299 112.89 133.299 113.775V144.233H114.105V113.775Z" fill="#1A5899"/>
<path d="M78.9119 113.775V129.806C78.9119 130.691 79.6291 131.408 80.5109 131.408H102.907C103.789 131.408 104.506 130.691 104.506 129.806V113.775C104.506 112.89 103.789 112.173 102.907 112.173H80.5109C79.6291 112.173 78.9119 112.89 78.9119 113.775Z" fill="#1A5899"/>
<path d="M66.2824 90.6148L72.6636 77.8253C72.8134 77.523 73.0307 77.2905 73.3133 77.1235C73.5812 76.9734 73.8639 76.9058 74.1466 76.9058H138.064C138.349 76.9058 138.632 76.9734 138.881 77.1066C139.182 77.2905 139.398 77.523 139.547 77.8253L145.931 90.6148C146.047 90.8664 146.097 91.1158 146.097 91.3674C146.08 97.5444 141.081 102.555 134.9 102.555C130.833 102.555 127.268 100.383 125.302 97.111C123.336 100.383 119.769 102.555 115.704 102.555C111.639 102.555 108.071 100.383 106.105 97.111C104.139 100.383 100.574 102.555 96.5072 102.555C92.4422 102.555 88.8772 100.383 86.9111 97.111C84.9451 100.383 81.3779 102.555 77.3129 102.555C71.1469 102.555 66.1326 97.5444 66.1157 91.3674C66.1157 91.1158 66.1642 90.8664 66.2824 90.6148Z" fill="#1A5899"/>
<path d="M72.5138 65.6849C72.5138 64.7992 73.231 64.0825 74.1128 64.0825H138.098C138.982 64.0825 139.697 64.7992 139.697 65.6849V80.1127H136.499V67.2873H75.7139V80.1127H72.5138V65.6849Z" fill="#1A5899"/>
<path d="M86.9112 73.6989C87.7929 73.6989 88.5102 72.9823 88.5102 72.0965C88.5102 71.2129 87.7929 70.4941 86.9112 70.4941H83.7111C82.8272 70.4941 82.1121 71.2129 82.1121 72.0965C82.1121 72.9823 82.8272 73.6989 83.7111 73.6989H86.9112Z" fill="#1A5899"/>
<path d="M112.504 73.6989C113.387 73.6989 114.105 72.9823 114.105 72.0965C114.105 71.2129 113.387 70.4941 112.504 70.4941H109.306C108.422 70.4941 107.707 71.2129 107.707 72.0965C107.707 72.9823 108.422 73.6989 109.306 73.6989H112.504Z" fill="#1A5899"/>
<path d="M131.7 73.6989C132.584 73.6989 133.299 72.9823 133.299 72.0965C133.299 71.2129 132.584 70.4941 131.7 70.4941H125.302C124.418 70.4941 123.703 71.2129 123.703 72.0965C123.703 72.9823 124.418 73.6989 125.302 73.6989H131.7Z" fill="#1A5899"/>
<path fill-rule="evenodd" clip-rule="evenodd" d="M96.5072 72.0965C96.5072 73.8659 95.0749 75.3034 93.3092 75.3034C91.5436 75.3034 90.1091 73.8659 90.1091 72.0965C90.1091 70.3271 91.5436 68.8917 93.3092 68.8917C95.0749 68.8917 96.5072 70.3271 96.5072 72.0965Z" fill="#1A5899"/>
<path fill-rule="evenodd" clip-rule="evenodd" d="M106.105 72.0965C106.105 73.8659 104.673 75.3034 102.907 75.3034C101.14 75.3034 99.7073 73.8659 99.7073 72.0965C99.7073 70.3271 101.14 68.8917 102.907 68.8917C104.673 68.8917 106.105 70.3271 106.105 72.0965Z" fill="#1A5899"/>
<path fill-rule="evenodd" clip-rule="evenodd" d="M122.102 72.0965C122.102 73.8659 120.669 75.3034 118.904 75.3034C117.136 75.3034 115.704 73.8659 115.704 72.0965C115.704 70.3271 117.136 68.8917 118.904 68.8917C120.669 68.8917 122.102 70.3271 122.102 72.0965Z" fill="#1A5899"/>
<path d="M58.0238 145.941H63.7026C66.4238 145.941 68.7506 146.875 70.6808 148.74C72.6152 150.606 73.5835 152.942 73.5835 155.749C73.5835 158.574 72.6215 160.92 70.6977 162.785C68.7738 164.651 66.4407 165.584 63.7026 165.584H58.0238V145.941ZM62.4875 161.584H63.1794C64.8101 161.584 66.1433 161.032 67.179 159.927C68.219 158.823 68.7485 157.439 68.7654 155.775C68.7654 154.107 68.2443 152.718 67.2043 151.606C66.1686 150.496 64.8269 149.94 63.1794 149.94H62.4875V161.584Z" fill="#1B9CEB"/>
<path d="M79.5224 153.365V159.174C79.5224 160.388 79.7038 161.246 80.0709 161.753C80.4358 162.261 81.0539 162.514 81.9273 162.514C82.7985 162.514 83.4145 162.261 83.7752 161.753C84.1401 161.246 84.3236 160.388 84.3236 159.174V153.365H88.5258V160.206C88.5258 162.235 87.9984 163.698 86.9479 164.594C85.8952 165.491 84.2182 165.939 81.9188 165.939C79.6237 165.939 77.9487 165.491 76.8982 164.594C75.8456 163.698 75.3203 162.235 75.3203 160.206V153.365H79.5224Z" fill="#1B9CEB"/>
<path d="M105.064 153.365L99.267 159.2L105.638 165.584H100.221L95.3434 160.705V165.584H91.1412V145.104H95.3434V157.627L99.5961 153.365H105.064Z" fill="#1B9CEB"/>
<path d="M120.411 153.365L114.614 159.2L120.985 165.584H115.568L110.69 160.705V165.584H106.488V145.104H110.69V157.627L114.943 153.365H120.411Z" fill="#1B9CEB"/>
<path d="M122.662 164.07C121.525 162.825 120.958 161.297 120.958 159.487C120.958 157.677 121.525 156.147 122.662 154.895C123.804 153.64 125.255 153.01 127.016 153.01C128.63 153.01 129.961 153.517 131.008 154.532V153.365H135.21V165.584H131.058V164.205H131.008C129.961 165.362 128.63 165.939 127.016 165.939C125.255 165.939 123.804 165.317 122.662 164.07ZM126.24 157.415C125.694 157.956 125.422 158.648 125.422 159.487C125.422 160.328 125.683 161.015 126.206 161.55C126.729 162.081 127.417 162.345 128.274 162.345C129.101 162.345 129.778 162.079 130.307 161.542C130.835 161.001 131.1 160.316 131.1 159.487C131.1 158.648 130.826 157.956 130.282 157.415C129.735 156.874 129.067 156.604 128.274 156.604C127.464 156.604 126.784 156.874 126.24 157.415Z" fill="#1B9CEB"/>
<path d="M138.062 165.584V153.365H142.264V154.65H142.314C143.405 153.557 144.569 153.01 145.808 153.01C146.409 153.01 147.006 153.09 147.596 153.247C148.191 153.405 148.763 153.652 149.309 153.991C149.854 154.325 150.299 154.798 150.643 155.411C150.984 156.02 151.157 156.728 151.157 157.534V165.584H146.947V158.675C146.947 158.045 146.744 157.491 146.339 157.018C145.938 156.54 145.413 156.299 144.761 156.299C144.124 156.299 143.548 156.544 143.031 157.035C142.519 157.525 142.264 158.073 142.264 158.675V165.584H138.062Z" fill="#1B9CEB"/>
<path d="M72.6446 171.802V171.083C72.6488 170.582 72.7669 170.179 72.9989 169.874C73.2289 169.57 73.5495 169.418 73.9609 169.418C74.1402 169.418 74.3089 169.443 74.4672 169.494C74.6233 169.544 74.7393 169.595 74.8131 169.646L74.9228 169.722L74.5178 170.542C74.4102 170.481 74.2942 170.449 74.1718 170.449C74.0242 170.449 73.9271 170.5 73.8765 170.601C73.8301 170.699 73.809 170.87 73.809 171.117V171.802H74.5853V172.69H73.809V175.176H72.6446V172.69H72.1552V171.802H72.6446Z" fill="#1A5899"/>
<path d="M74.8953 174.779C74.524 174.44 74.3384 174.013 74.3384 173.493C74.3384 172.969 74.5325 172.542 74.9206 172.208C75.3087 171.87 75.7897 171.701 76.3635 171.701C76.931 171.701 77.4056 171.87 77.7895 172.208C78.1777 172.546 78.3717 172.975 78.3717 173.493C78.3717 174.013 78.1819 174.44 77.8064 174.779C77.4288 175.113 76.9478 175.277 76.3635 175.277C75.7602 175.277 75.2708 175.113 74.8953 174.779ZM75.7982 172.927C75.6463 173.075 75.5703 173.263 75.5703 173.493C75.5703 173.726 75.642 173.914 75.7897 174.06C75.9353 174.208 76.1272 174.28 76.3635 174.28C76.5871 174.28 76.7727 174.208 76.9204 174.06C77.066 173.908 77.1398 173.72 77.1398 173.493C77.1398 173.263 77.0639 173.075 76.912 172.927C76.7601 172.775 76.5766 172.698 76.3635 172.698C76.1378 172.698 75.95 172.775 75.7982 172.927Z" fill="#1A5899"/>
<path d="M78.5927 175.176V171.802H79.7487V172.284H79.7655C79.7698 172.267 79.7824 172.248 79.7993 172.225C79.8204 172.197 79.8668 172.153 79.9343 172.09C80.0018 172.022 80.0714 171.963 80.1452 171.912C80.217 171.857 80.314 171.808 80.4321 171.768C80.5503 171.724 80.6705 171.701 80.795 171.701C80.9236 171.701 81.0481 171.722 81.1662 171.76C81.2886 171.794 81.3793 171.828 81.4363 171.861L81.5291 171.912L81.0481 172.901C80.9004 172.779 80.6979 172.715 80.4406 172.715C80.2992 172.715 80.179 172.747 80.0777 172.808C79.9765 172.872 79.9048 172.948 79.8668 173.037C79.8267 173.121 79.7951 173.195 79.774 173.257C79.7571 173.32 79.7487 173.366 79.7487 173.4V175.176H78.5927Z" fill="#1A5899"/>
<path d="M82.8438 176.005L83.7973 175.54C83.9703 175.827 84.274 175.971 84.7086 175.971C84.9111 175.971 85.0967 175.905 85.2655 175.776C85.4385 175.645 85.5271 175.449 85.5271 175.184V174.931C85.3182 175.163 84.9491 175.278 84.4217 175.278C83.9365 175.278 83.5378 175.106 83.2235 174.762C82.9071 174.419 82.751 173.996 82.751 173.493C82.751 172.992 82.9071 172.57 83.2235 172.225C83.5378 171.876 83.9365 171.701 84.4217 171.701C84.8541 171.701 85.217 171.836 85.5102 172.107H85.5271V171.802H86.6915V175.269C86.6915 175.814 86.508 176.237 86.143 176.537C85.7823 176.835 85.3035 176.986 84.7086 176.986C83.7467 176.986 83.1244 176.658 82.8438 176.005ZM84.2107 172.927C84.0589 173.075 83.9829 173.263 83.9829 173.493C83.9829 173.726 84.0546 173.914 84.2023 174.06C84.3479 174.208 84.5398 174.28 84.7761 174.28C84.9997 174.28 85.1853 174.208 85.333 174.06C85.4786 173.908 85.5524 173.72 85.5524 173.493C85.5524 173.263 85.4764 173.075 85.3246 172.927C85.1727 172.775 84.9892 172.698 84.7761 172.698C84.5504 172.698 84.3626 172.775 84.2107 172.927Z" fill="#1A5899"/>
<path d="M87.1497 175.176V171.802H88.3057V172.284H88.3225C88.3268 172.267 88.3394 172.248 88.3563 172.225C88.3774 172.197 88.4238 172.153 88.4913 172.09C88.5588 172.022 88.6284 171.963 88.7022 171.912C88.774 171.857 88.871 171.808 88.9891 171.768C89.1073 171.724 89.2275 171.701 89.352 171.701C89.4807 171.701 89.6051 171.722 89.7232 171.76C89.8456 171.794 89.9363 171.828 89.9933 171.861L90.0861 171.912L89.6051 172.901C89.4574 172.779 89.2549 172.715 88.9976 172.715C88.8562 172.715 88.736 172.747 88.6347 172.808C88.5335 172.872 88.4618 172.948 88.4238 173.037C88.3837 173.121 88.3521 173.195 88.331 173.257C88.3141 173.32 88.3057 173.366 88.3057 173.4V175.176H87.1497Z" fill="#1A5899"/>
<path d="M90.4016 174.779C90.0304 174.44 89.8447 174.013 89.8447 173.493C89.8447 172.969 90.0388 172.542 90.4269 172.208C90.8151 171.87 91.2961 171.701 91.8698 171.701C92.4373 171.701 92.9119 171.87 93.2959 172.208C93.684 172.546 93.8781 172.975 93.8781 173.493C93.8781 174.013 93.6882 174.44 93.3127 174.779C92.9351 175.113 92.4542 175.277 91.8698 175.277C91.2665 175.277 90.7771 175.113 90.4016 174.779ZM91.3045 172.927C91.1526 173.075 91.0767 173.263 91.0767 173.493C91.0767 173.726 91.1484 173.914 91.2961 174.06C91.4416 174.208 91.6336 174.28 91.8698 174.28C92.0935 174.28 92.2791 174.208 92.4268 174.06C92.5723 173.908 92.6461 173.72 92.6461 173.493C92.6461 173.263 92.5702 173.075 92.4183 172.927C92.2664 172.775 92.0829 172.698 91.8698 172.698C91.6441 172.698 91.4564 172.775 91.3045 172.927Z" fill="#1A5899"/>
<path d="M96.1664 175.176H95.3732L93.5675 171.802H94.9091L95.7276 173.62L96.5377 171.802H97.3393L98.1493 173.62L98.9678 171.802H100.309L98.5037 175.176H97.7105L96.9427 173.434L96.1664 175.176Z" fill="#1A5899"/>
<path d="M104.253 171.802H105.595L102.945 176.884H101.612L102.768 174.652L101.173 171.802H102.515L103.451 173.536L104.253 171.802Z" fill="#1A5899"/>
<path d="M105.843 174.779C105.471 174.44 105.286 174.013 105.286 173.493C105.286 172.969 105.48 172.542 105.868 172.208C106.256 171.87 106.737 171.701 107.311 171.701C107.878 171.701 108.353 171.87 108.737 172.208C109.125 172.546 109.319 172.975 109.319 173.493C109.319 174.013 109.129 174.44 108.754 174.779C108.376 175.113 107.895 175.277 107.311 175.277C106.708 175.277 106.218 175.113 105.843 174.779ZM106.746 172.927C106.594 173.075 106.518 173.263 106.518 173.493C106.518 173.726 106.589 173.914 106.737 174.06C106.883 174.208 107.075 174.28 107.311 174.28C107.534 174.28 107.72 174.208 107.868 174.06C108.013 173.908 108.087 173.72 108.087 173.493C108.087 173.263 108.011 173.075 107.859 172.927C107.707 172.775 107.524 172.698 107.311 172.698C107.085 172.698 106.897 172.775 106.746 172.927Z" fill="#1A5899"/>
<path d="M110.637 171.802V173.409C110.637 173.743 110.683 173.98 110.78 174.119C110.882 174.261 111.053 174.33 111.295 174.33C111.536 174.33 111.709 174.261 111.81 174.119C111.911 173.98 111.962 173.743 111.962 173.409V171.802H113.118V173.688C113.118 174.252 112.97 174.658 112.679 174.905C112.392 175.155 111.93 175.277 111.295 175.277C110.658 175.277 110.194 175.155 109.903 174.905C109.616 174.658 109.473 174.252 109.473 173.688V171.802H110.637Z" fill="#1A5899"/>
<path d="M113.517 175.176V171.802H114.673V172.284H114.69C114.694 172.267 114.706 172.248 114.723 172.225C114.744 172.197 114.791 172.153 114.858 172.09C114.926 172.022 114.995 171.963 115.069 171.912C115.141 171.857 115.238 171.808 115.356 171.768C115.474 171.724 115.595 171.701 115.719 171.701C115.848 171.701 115.972 171.722 116.09 171.76C116.213 171.794 116.303 171.828 116.36 171.861L116.453 171.912L115.972 172.901C115.825 172.779 115.622 172.715 115.365 172.715C115.223 172.715 115.103 172.747 115.002 172.808C114.901 172.872 114.829 172.948 114.791 173.037C114.751 173.121 114.719 173.195 114.698 173.257C114.681 173.32 114.673 173.366 114.673 173.4V175.176H113.517Z" fill="#1A5899"/>
<path d="M121.379 172.225C121.694 172.569 121.852 172.992 121.852 173.493C121.852 173.996 121.694 174.419 121.379 174.762C121.063 175.106 120.664 175.277 120.181 175.277C119.736 175.277 119.367 175.117 119.076 174.795H119.067V175.176H117.92V169.519H119.076V172.123C119.367 171.842 119.736 171.701 120.181 171.701C120.664 171.701 121.063 171.876 121.379 172.225ZM120.401 174.06C120.546 173.914 120.62 173.726 120.62 173.493C120.62 173.263 120.544 173.075 120.392 172.927C120.244 172.775 120.059 172.698 119.835 172.698C119.616 172.698 119.43 172.775 119.278 172.927C119.126 173.075 119.05 173.263 119.05 173.493C119.05 173.719 119.122 173.908 119.27 174.06C119.415 174.208 119.603 174.28 119.835 174.28C120.071 174.28 120.259 174.208 120.401 174.06Z" fill="#1A5899"/>
<path d="M123.171 171.802V173.409C123.171 173.743 123.217 173.98 123.314 174.119C123.415 174.261 123.586 174.33 123.829 174.33C124.069 174.33 124.242 174.261 124.344 174.119C124.445 173.98 124.495 173.743 124.495 173.409V171.802H125.651V173.688C125.651 174.252 125.504 174.658 125.213 174.905C124.926 175.155 124.464 175.277 123.829 175.277C123.192 175.277 122.728 175.155 122.437 174.905C122.15 174.658 122.006 174.252 122.006 173.688V171.802H123.171Z" fill="#1A5899"/>
<path d="M127.51 171.701C127.7 171.701 127.89 171.724 128.076 171.768C128.265 171.815 128.409 171.859 128.506 171.904L128.641 171.963L128.261 172.732C127.995 172.593 127.747 172.521 127.51 172.521C127.379 172.521 127.287 172.536 127.232 172.563C127.175 172.593 127.147 172.646 127.147 172.724C127.147 172.741 127.15 172.758 127.156 172.775C127.16 172.791 127.169 172.808 127.181 172.825C127.198 172.842 127.209 172.857 127.215 172.868C127.225 172.874 127.244 172.884 127.274 172.901C127.301 172.914 127.32 172.923 127.333 172.927C127.35 172.933 127.375 172.944 127.409 172.961C127.447 172.973 127.477 172.982 127.493 172.986C127.51 172.992 127.538 173.003 127.578 173.02C127.622 173.032 127.656 173.041 127.679 173.045C127.814 173.085 127.932 173.13 128.033 173.18C128.135 173.227 128.238 173.29 128.346 173.375C128.457 173.459 128.544 173.567 128.607 173.696C128.668 173.821 128.7 173.965 128.7 174.128C128.7 174.895 128.168 175.277 127.105 175.277C126.863 175.277 126.633 175.239 126.413 175.168C126.198 175.089 126.044 175.013 125.949 174.939L125.806 174.821L126.278 174.026C126.312 174.056 126.356 174.092 126.413 174.136C126.468 174.176 126.569 174.233 126.717 174.305C126.869 174.379 127 174.415 127.114 174.415C127.354 174.415 127.477 174.335 127.477 174.17C127.477 174.098 127.445 174.041 127.384 174.001C127.32 173.956 127.217 173.908 127.071 173.857C126.924 173.802 126.81 173.753 126.726 173.713C126.51 173.601 126.342 173.476 126.219 173.341C126.101 173.202 126.042 173.018 126.042 172.791C126.042 172.449 126.173 172.181 126.439 171.988C126.702 171.798 127.059 171.701 127.51 171.701Z" fill="#1A5899"/>
<path d="M129.061 169.916C129.196 169.781 129.356 169.714 129.542 169.714C129.731 169.714 129.896 169.781 130.031 169.916C130.166 170.052 130.233 170.217 130.233 170.407C130.233 170.593 130.166 170.758 130.031 170.897C129.896 171.033 129.731 171.1 129.542 171.1C129.356 171.1 129.196 171.033 129.061 170.897C128.926 170.758 128.858 170.593 128.858 170.407C128.858 170.217 128.926 170.052 129.061 169.916ZM128.951 171.802V175.176H130.107V171.802H128.951Z" fill="#1A5899"/>
<path d="M130.604 175.176V171.802H131.76V172.157H131.777C132.081 171.853 132.402 171.701 132.739 171.701C132.908 171.701 133.072 171.724 133.237 171.768C133.399 171.815 133.558 171.882 133.71 171.971C133.861 172.062 133.982 172.191 134.072 172.36C134.167 172.529 134.216 172.728 134.216 172.952V175.176H133.06V173.265C133.06 173.092 133.003 172.939 132.891 172.808C132.777 172.679 132.632 172.614 132.452 172.614C132.277 172.614 132.117 172.682 131.971 172.817C131.83 172.952 131.76 173.102 131.76 173.265V175.176H130.604Z" fill="#1A5899"/>
<path d="M138.014 173.654H135.576C135.576 173.891 135.652 174.066 135.804 174.178C135.96 174.292 136.126 174.347 136.302 174.347C136.491 174.347 136.641 174.322 136.749 174.271C136.861 174.221 136.987 174.123 137.128 173.975L137.964 174.39C137.614 174.982 137.031 175.277 136.217 175.277C135.711 175.277 135.274 175.104 134.909 174.753C134.549 174.404 134.369 173.984 134.369 173.493C134.369 173.003 134.549 172.584 134.909 172.233C135.274 171.878 135.711 171.701 136.217 171.701C136.751 171.701 137.183 171.857 137.517 172.166C137.854 172.477 138.023 172.918 138.023 173.493C138.023 173.574 138.019 173.626 138.014 173.654ZM135.61 173.003H136.892C136.863 172.83 136.793 172.696 136.681 172.605C136.567 172.51 136.424 172.462 136.251 172.462C136.059 172.462 135.905 172.512 135.787 172.614C135.673 172.711 135.614 172.84 135.61 173.003Z" fill="#1A5899"/>
<path d="M139.703 171.701C139.892 171.701 140.082 171.724 140.268 171.768C140.458 171.815 140.601 171.859 140.698 171.904L140.833 171.963L140.454 172.732C140.188 172.593 139.939 172.521 139.703 172.521C139.572 172.521 139.479 172.536 139.424 172.563C139.367 172.593 139.34 172.646 139.34 172.724C139.34 172.741 139.342 172.758 139.348 172.775C139.352 172.791 139.361 172.808 139.374 172.825C139.39 172.842 139.401 172.857 139.407 172.868C139.418 172.874 139.437 172.884 139.466 172.901C139.494 172.914 139.513 172.923 139.525 172.927C139.542 172.933 139.568 172.944 139.601 172.961C139.639 172.973 139.669 172.982 139.686 172.986C139.703 172.992 139.73 173.003 139.77 173.02C139.814 173.032 139.848 173.041 139.871 173.045C140.006 173.085 140.125 173.13 140.226 173.18C140.327 173.227 140.43 173.29 140.538 173.375C140.65 173.459 140.736 173.567 140.8 173.696C140.861 173.821 140.892 173.965 140.892 174.128C140.892 174.895 140.361 175.277 139.298 175.277C139.055 175.277 138.825 175.239 138.606 175.168C138.391 175.089 138.237 175.013 138.142 174.939L137.998 174.821L138.471 174.026C138.504 174.056 138.549 174.092 138.606 174.136C138.661 174.176 138.762 174.233 138.909 174.305C139.061 174.379 139.192 174.415 139.306 174.415C139.547 174.415 139.669 174.335 139.669 174.17C139.669 174.098 139.637 174.041 139.576 174.001C139.513 173.956 139.409 173.908 139.264 173.857C139.116 173.802 139.002 173.753 138.918 173.713C138.703 173.601 138.534 173.476 138.412 173.341C138.293 173.202 138.234 173.018 138.234 172.791C138.234 172.449 138.365 172.181 138.631 171.988C138.895 171.798 139.251 171.701 139.703 171.701Z" fill="#1A5899"/>
<path d="M142.603 171.701C142.793 171.701 142.983 171.724 143.168 171.768C143.358 171.815 143.502 171.859 143.599 171.904L143.734 171.963L143.354 172.732C143.088 172.593 142.839 172.521 142.603 172.521C142.472 172.521 142.379 172.536 142.325 172.563C142.268 172.593 142.24 172.646 142.24 172.724C142.24 172.741 142.242 172.758 142.249 172.775C142.253 172.791 142.261 172.808 142.274 172.825C142.291 172.842 142.301 172.857 142.308 172.868C142.318 172.874 142.337 172.884 142.367 172.901C142.394 172.914 142.413 172.923 142.426 172.927C142.443 172.933 142.468 172.944 142.502 172.961C142.54 172.973 142.569 172.982 142.586 172.986C142.603 172.992 142.63 173.003 142.671 173.02C142.715 173.032 142.749 173.041 142.772 173.045C142.907 173.085 143.025 173.13 143.126 173.18C143.227 173.227 143.331 173.29 143.438 173.375C143.55 173.459 143.637 173.567 143.7 173.696C143.761 173.821 143.793 173.965 143.793 174.128C143.793 174.895 143.261 175.277 142.198 175.277C141.955 175.277 141.725 175.239 141.506 175.168C141.291 175.089 141.137 175.013 141.042 174.939L140.899 174.821L141.371 174.026C141.405 174.056 141.449 174.092 141.506 174.136C141.561 174.176 141.662 174.233 141.81 174.305C141.962 174.379 142.093 174.415 142.206 174.415C142.447 174.415 142.569 174.335 142.569 174.17C142.569 174.098 142.538 174.041 142.476 174.001C142.413 173.956 142.31 173.908 142.164 173.857C142.017 173.802 141.903 173.753 141.818 173.713C141.603 173.601 141.434 173.476 141.312 173.341C141.194 173.202 141.135 173.018 141.135 172.791C141.135 172.449 141.266 172.181 141.531 171.988C141.795 171.798 142.152 171.701 142.603 171.701Z" fill="#1A5899"/>
</g>
<defs>
<clipPath id="clip0_422_778">
<rect width="112" height="154" fill="white" transform="translate(49 23)"/>
</clipPath>
</defs>
</svg>
