<svg width="34" height="34" viewBox="0 0 34 34" fill="none" xmlns="http://www.w3.org/2000/svg">
<path d="M1 26.88V7.12H28.92V20.9738V20.9932C28.3723 20.8412 27.7955 20.76 27.2 20.76C23.7561 20.76 20.9352 23.4769 20.7678 26.88H20.4425H1ZM4.76 9.2H3.76V10.2V11.56V12.56H4.76H7.48H8.48V11.56V10.2V9.2H7.48H4.76ZM9.52 9.2H8.52V10.2V11.56V12.56H9.52H25.16H26.16V11.56V10.2V9.2H25.16H9.52ZM4.76 12.6H3.76V13.6V14.96V15.96H4.76H7.48H8.48V14.96V13.6V12.6H7.48H4.76ZM9.52 12.6H8.52V13.6V14.96V15.96H9.52H25.16H26.16V14.96V13.6V12.6H25.16H9.52ZM4.76 16H3.76V17V18.36V19.36H4.76H7.48H8.48V18.36V17V16H7.48H4.76ZM9.52 16H8.52V17V18.36V19.36H9.52H25.16H26.16V18.36V17V16H25.16H9.52ZM4.76 19.4H3.76V20.4V21.76V22.76H4.76H7.48H8.48V21.76V20.4V19.4H7.48H4.76ZM9.52 19.4H8.52V20.4V21.76V22.76H9.52H20.4H21.4V21.76V20.4V19.4H20.4H9.52ZM1 1.9125C1 1.41557 1.41557 1 1.9125 1H28.0075C28.5044 1 28.92 1.41557 28.92 1.9125V3.76H1V1.9125Z" fill="white" stroke="#009BDD" stroke-width="2"/>
</svg>
