<svg width="18" height="21" viewBox="0 0 18 21" fill="none" xmlns="http://www.w3.org/2000/svg">
<path d="M17.5702 0.15246C17.4235 0.0589276 17.2485 0.0157694 17.0634 0.0275161C16.8784 0.0392623 16.6902 0.10548 16.5187 0.219218L1.04184 10.0863L1.04217 10.0893C0.856822 10.1968 0.693656 10.3545 0.571571 10.5442C0.400956 10.811 0.323357 11.1219 0.355848 11.4085C0.38834 11.6951 0.528259 11.9339 0.744825 12.0724L5.64419 15.2052L14.3537 5.18277L8.91043 17.2937L13.8098 20.4265C14.0264 20.565 14.3018 20.5918 14.5756 20.5011C14.8494 20.4103 15.0991 20.2094 15.2697 19.9426C15.3917 19.7522 15.4674 19.5376 15.4879 19.3236L17.9457 1.16768C17.9832 0.958615 17.968 0.753138 17.9017 0.573969C17.8355 0.3948 17.7208 0.248919 17.5702 0.15246ZM8.91043 17.2937L5.64419 15.2052L5.0733 18.5332C4.95895 19.2014 5.56975 19.5919 6.12749 19.2073L8.91043 17.2937Z" fill="#1A5899"/>
</svg>
