<svg width="31" height="28" viewBox="0 0 31 28" fill="none" xmlns="http://www.w3.org/2000/svg">
<path d="M13.2374 0.205078C6.45031 0.205078 0.921875 5.36583 0.921875 11.7015C0.921875 18.0372 6.45031 23.198 13.2374 23.198C16.1888 23.198 18.8993 22.2196 21.0236 20.5955L28.3768 27.4597C28.4903 27.5701 28.6262 27.6581 28.7766 27.7188C28.927 27.7795 29.0889 27.8116 29.2528 27.8131C29.4166 27.8147 29.5791 27.7857 29.7308 27.7279C29.8825 27.6701 30.0204 27.5846 30.1362 27.4764C30.2521 27.3683 30.3437 27.2396 30.4056 27.098C30.4675 26.9564 30.4986 26.8047 30.4969 26.6517C30.4952 26.4988 30.4609 26.3477 30.3959 26.2073C30.3309 26.0669 30.2365 25.94 30.1183 25.8341L22.7651 18.9699C24.5048 16.9869 25.5529 14.4566 25.5529 11.7015C25.5529 5.36583 20.0245 0.205078 13.2374 0.205078ZM13.2374 2.50437C18.6933 2.50437 23.0898 6.60845 23.0898 11.7015C23.0898 16.7946 18.6933 20.8987 13.2374 20.8987C7.78147 20.8987 3.38498 16.7946 3.38498 11.7015C3.38498 6.60845 7.78147 2.50437 13.2374 2.50437Z" fill="#070645"/>
</svg>
