<svg width="41" height="46" viewBox="0 0 41 46" fill="none" xmlns="http://www.w3.org/2000/svg">
<path d="M3.43317 0.266663C1.62834 0.266663 0.166504 1.7285 0.166504 3.53333V39.4667C0.166504 41.2715 1.62834 42.7333 3.43317 42.7333H23.9551C23.948 42.7906 23.936 42.8411 23.9296 42.8992C23.5964 43.0621 23.3287 43.3336 23.1703 43.6689C23.0119 44.0042 22.9723 44.3835 23.058 44.7443C23.1438 45.1051 23.3497 45.426 23.6421 45.6542C23.9344 45.8824 24.2957 46.0044 24.6665 46H25.2088C25.3852 46.0291 25.5652 46.0291 25.7416 46H38.2755C38.4519 46.0291 38.6319 46.0291 38.8082 46H39.3665C39.7385 46.0059 40.1014 45.8846 40.3952 45.6563C40.6889 45.4279 40.8959 45.106 40.9818 44.744C41.0678 44.382 41.0275 44.0015 40.8678 43.6655C40.7081 43.3294 40.4384 43.058 40.1034 42.896C39.7548 39.745 38.3134 37.7868 36.9931 36.2C38.3139 34.6126 39.7554 32.6537 40.1034 29.5008C40.4366 29.3378 40.7044 29.0664 40.8628 28.7311C41.0211 28.3957 41.0607 28.0165 40.975 27.6557C40.8892 27.2949 40.6833 26.974 40.3909 26.7458C40.0986 26.5176 39.7373 26.3956 39.3665 26.4H38.8019C38.7101 26.3847 38.6173 26.3772 38.5243 26.3777C38.4452 26.3794 38.3663 26.3868 38.2882 26.4H32.8332V3.53333C32.8332 1.7285 31.3713 0.266663 29.5665 0.266663H3.43317ZM8.33317 10.0667C9.23477 10.0667 9.9665 10.7984 9.9665 11.7C9.9665 12.6016 9.23477 13.3333 8.33317 13.3333C7.43157 13.3333 6.69984 12.6016 6.69984 11.7C6.69984 10.7984 7.43157 10.0667 8.33317 10.0667ZM14.8665 10.0667H24.6665C25.5681 10.0667 26.2998 10.7984 26.2998 11.7C26.2998 12.6016 25.5681 13.3333 24.6665 13.3333H14.8665C13.9649 13.3333 13.2332 12.6016 13.2332 11.7C13.2332 10.7984 13.9649 10.0667 14.8665 10.0667ZM8.33317 16.6C9.23477 16.6 9.9665 17.3317 9.9665 18.2333C9.9665 19.1349 9.23477 19.8667 8.33317 19.8667C7.43157 19.8667 6.69984 19.1349 6.69984 18.2333C6.69984 17.3317 7.43157 16.6 8.33317 16.6ZM14.8665 16.6H24.6665C25.5681 16.6 26.2998 17.3317 26.2998 18.2333C26.2998 19.1349 25.5681 19.8667 24.6665 19.8667H14.8665C13.9649 19.8667 13.2332 19.1349 13.2332 18.2333C13.2332 17.3317 13.9649 16.6 14.8665 16.6ZM8.33317 23.1333C9.23477 23.1333 9.9665 23.8651 9.9665 24.7667C9.9665 25.6683 9.23477 26.4 8.33317 26.4C7.43157 26.4 6.69984 25.6683 6.69984 24.7667C6.69984 23.8651 7.43157 23.1333 8.33317 23.1333ZM14.8665 23.1333H24.6665C25.5681 23.1333 26.2998 23.8651 26.2998 24.7667C26.2998 25.6683 25.5681 26.4 24.6665 26.4H14.8665C13.9649 26.4 13.2332 25.6683 13.2332 24.7667C13.2332 23.8651 13.9649 23.1333 14.8665 23.1333ZM8.33317 29.6667C9.23477 29.6667 9.9665 30.3984 9.9665 31.3C9.9665 32.2016 9.23477 32.9333 8.33317 32.9333C7.43157 32.9333 6.69984 32.2016 6.69984 31.3C6.69984 30.3984 7.43157 29.6667 8.33317 29.6667ZM14.8665 29.6667H23.9551C24.1105 30.9121 24.4334 31.9755 24.8547 32.895C24.79 32.9029 24.7334 32.9333 24.6665 32.9333H14.8665C13.9649 32.9333 13.2332 32.2016 13.2332 31.3C13.2332 30.3984 13.9649 29.6667 14.8665 29.6667ZM27.2345 29.6667H36.7985C36.4341 32.2443 35.1964 33.4451 33.7392 35.1345L32.8204 36.2L33.7392 37.2655C35.1964 38.9549 36.4341 40.1557 36.7985 42.7333H35.6277C34.5335 41.3361 33.0711 40.1685 32.0165 40.1685C30.9619 40.1685 29.4995 41.3361 28.4053 42.7333H27.2345C27.5989 40.1557 28.8366 38.9549 30.2938 37.2655L31.2126 36.2L30.2938 35.1345C28.8366 33.4451 27.5989 32.2443 27.2345 29.6667Z" fill="#1A5899"/>
</svg>
