<svg width="41" height="38" viewBox="0 0 41 38" fill="none" xmlns="http://www.w3.org/2000/svg">
<path d="M7.45419 0C5.40417 0 3.72688 1.71002 3.72688 3.80004V25.0231L10.4171 18.2209C10.6407 17.9929 10.902 17.7829 11.1815 17.6309V3.80004H37.2727V26.6003H19.9793C19.8302 26.8853 19.6242 27.1516 19.4005 27.3796L16.4376 30.4004H37.2727C39.3227 30.4004 41 28.6903 41 26.6003V3.80004C41 1.71002 39.3227 0 37.2727 0H7.45419ZM14.9088 5.70007V9.50011H17.3731L20.6308 17.8053C20.916 18.5273 21.6012 19.0002 22.3634 19.0002H29.8181C30.6735 19.0002 31.4203 18.4078 31.6271 17.5604L33.4908 9.96027C33.6306 9.39407 33.5009 8.79096 33.1486 8.33115C32.7964 7.86945 32.2557 7.60009 31.6817 7.60009H20.6417L20.3687 6.895C20.0836 6.17299 19.3984 5.70007 18.6361 5.70007H14.9088ZM22.1341 11.4001H29.2939L28.3621 15.2002H23.6265L22.1341 11.4001ZM7.45419 13.3002C8.4792 13.3002 9.31784 14.1552 9.31784 15.2002C9.31784 16.2452 8.4792 17.1002 7.45419 17.1002C6.42918 17.1002 5.59053 16.2452 5.59053 15.2002C5.59053 14.1552 6.42918 13.3002 7.45419 13.3002ZM13.0452 20.9002L3.45388 30.6787L7.18119 34.4787L16.7725 24.7003V20.9002H13.0452ZM22.3634 20.9002C21.8692 20.9002 21.3951 21.1004 21.0456 21.4567C20.6961 21.8131 20.4998 22.2963 20.4998 22.8003C20.4998 23.3042 20.6961 23.7875 21.0456 24.1438C21.3951 24.5001 21.8692 24.7003 22.3634 24.7003C22.8577 24.7003 23.3317 24.5001 23.6812 24.1438C24.0307 23.7875 24.2271 23.3042 24.2271 22.8003C24.2271 22.2963 24.0307 21.8131 23.6812 21.4567C23.3317 21.1004 22.8577 20.9002 22.3634 20.9002ZM29.8181 20.9002C29.3238 20.9002 28.8498 21.1004 28.5003 21.4567C28.1508 21.8131 27.9544 22.2963 27.9544 22.8003C27.9544 23.3042 28.1508 23.7875 28.5003 24.1438C28.8498 24.5001 29.3238 24.7003 29.8181 24.7003C30.3123 24.7003 30.7864 24.5001 31.1359 24.1438C31.4854 23.7875 31.6817 23.3042 31.6817 22.8003C31.6817 22.2963 31.4854 21.8131 31.1359 21.4567C30.7864 21.1004 30.3123 20.9002 29.8181 20.9002ZM2.13622 32.0221L0.27256 33.9221C-0.0908532 34.2926 -0.0908532 34.893 0.27256 35.2655L2.68221 37.7221C3.04562 38.0926 3.63646 38.0926 3.99987 37.7221L5.86353 35.8221L2.13622 32.0221Z" fill="white"/>
</svg>
