<svg width="23" height="30" viewBox="0 0 23 30" fill="none" xmlns="http://www.w3.org/2000/svg">
<path d="M11.5 0.28125C8.1803 0.28125 5.39038 2.4303 4.25391 5.33984L6.27051 6.16016C7.09937 4.03674 9.13306 2.46875 11.5 2.46875C14.5121 2.46875 16.9688 4.92542 16.9688 7.9375V9.44141C15.3538 8.50146 13.4952 7.9375 11.5 7.9375C5.47156 7.9375 0.5625 12.8466 0.5625 18.875C0.5625 24.9034 5.47156 29.8125 11.5 29.8125C17.5284 29.8125 22.4375 24.9034 22.4375 18.875C22.4375 15.8287 21.1771 13.0687 19.1562 11.082V7.9375C19.1562 3.7334 15.7041 0.28125 11.5 0.28125ZM11.5 10.125C16.345 10.125 20.25 14.03 20.25 18.875C20.25 23.72 16.345 27.625 11.5 27.625C6.65503 27.625 2.75 23.72 2.75 18.875C2.75 14.03 6.65503 10.125 11.5 10.125ZM11.5 16.6875C10.2909 16.6875 9.3125 17.6659 9.3125 18.875C9.3125 19.6825 9.75256 20.3746 10.4062 20.7549V24.3438H12.5938V20.7549C13.2474 20.3746 13.6875 19.6825 13.6875 18.875C13.6875 17.6659 12.7091 16.6875 11.5 16.6875Z" fill="#1A5899"/>
</svg>
