<svg width="26" height="28" viewBox="0 0 26 28" fill="none" xmlns="http://www.w3.org/2000/svg">
<path d="M23.7292 8.33333H1.77083C0.794042 8.33333 0 7.53858 0 6.5625V2.3125C0 1.33642 0.794042 0.541668 1.77083 0.541668H23.7292C24.706 0.541668 25.5 1.33642 25.5 2.3125V6.5625C25.5 7.53858 24.706 8.33333 23.7292 8.33333ZM23.7292 2.66667H23.7362H23.7292ZM1.41667 9.75V24.2708C1.41667 26.031 2.84396 27.4583 4.60417 27.4583H20.8958C22.656 27.4583 24.0833 26.031 24.0833 24.2708V9.75H1.41667ZM15.9375 14H9.5625C8.976 14 8.5 13.5247 8.5 12.9375C8.5 12.3503 8.976 11.875 9.5625 11.875H15.9375C16.524 11.875 17 12.3503 17 12.9375C17 13.5247 16.524 14 15.9375 14Z" fill="white"/>
</svg>
