<svg width="1920" height="570" viewBox="0 0 1920 570" fill="none" xmlns="http://www.w3.org/2000/svg">
<path fillRule="evenodd" clipRule="evenodd" d="M0 557.025L80 551.186C160 544.699 320 532.373 480 538.86C640 544.699 800 570 960 570C1120 570 1280 544.699 1440 538.86C1600 532.373 1760 544.699 1840 551.186L1920 557.025V220.977H1840C1760 220.977 1600 220.977 1440 220.977C1280 220.977 1120 220.977 960 220.977C800 220.977 640 220.977 480 220.977C320 220.977 160 220.977 80 220.977H0V557.025Z" fill="#409EFF"/>
<rect width="1920" height="265.609" fill="#409EFF"/>
</svg>
