<svg width="1920" height="349" viewBox="0 0 1920 349" fill="none" xmlns="http://www.w3.org/2000/svg">
<path fillRule="evenodd" clipRule="evenodd" d="M0 349L53 327.06C107 305.121 213 261.999 320 268.807C427 276.373 533 334.626 640 305.121C747 276.373 853 159.866 960 131.118C1067 101.613 1173 159.866 1280 210.554C1387 261.999 1493 305.121 1600 305.121C1707 305.121 1813 261.999 1867 240.059L1920 218.12V0.237549H1867C1813 0.237549 1707 0.237549 1600 0.237549C1493 0.237549 1387 0.237549 1280 0.237549C1173 0.237549 1067 0.237549 960 0.237549C853 0.237549 747 0.237549 640 0.237549C533 0.237549 427 0.237549 320 0.237549C213 0.237549 107 0.237549 53 0.237549H0V349Z" fill="#009BDD"/>
</svg>
